<svg width="75" height="75" viewBox="0 0 75 75" fill="none" xmlns="http://www.w3.org/2000/svg">
<circle cx="37.5" cy="37.5" r="36.5" stroke="white" stroke-width="2"/>
<path fill-rule="evenodd" clip-rule="evenodd" d="M31.6361 14.2795C31.6361 14.4426 31.4267 14.576 31.1707 14.576C30.5719 14.576 29.8584 15.2899 29.8584 15.889C29.8584 16.1452 29.7251 16.3548 29.5621 16.3548C29.3906 16.3548 29.2658 17.3005 29.2658 18.5994C29.2658 20.8383 28.9307 21.6913 28.0513 21.6913C27.4247 21.6913 23.8313 25.6341 22.919 27.3225C21.7478 29.4908 21.4948 30.7153 21.354 34.8931C21.234 38.4597 21.234 38.4597 20.4118 38.8238C19.3775 39.2818 17.7105 40.7547 17.7105 41.2106C17.7105 41.4001 17.5772 41.5548 17.4143 41.5548C17.2513 41.5548 17.118 41.8884 17.118 42.296C17.118 42.7037 16.9846 43.0372 16.8217 43.0372C16.6335 43.0372 16.5254 45.3147 16.5254 49.2764C16.5254 56.7093 16.6294 56.9713 19.573 56.9713C21.0112 56.9713 21.2068 57.0505 21.5863 57.7866C22.0947 58.7727 23.1969 59.9361 23.623 59.9361C23.7934 59.9361 23.9326 60.0695 23.9326 60.2325C23.9326 60.4258 28.6732 60.529 37.5619 60.529C46.4506 60.529 51.1912 60.4258 51.1912 60.2325C51.1912 60.0695 51.3305 59.9361 51.5005 59.9361C52.0039 59.9361 53.208 58.6654 53.5375 57.7866C53.8146 57.0472 53.9808 56.9713 55.3179 56.9713C56.9685 56.9713 58.3021 56.4863 58.3021 55.886C58.3021 55.6678 58.4355 55.489 58.5984 55.489C59.0224 55.489 58.986 44.9966 58.5573 43.6512C57.7955 41.2602 56.6927 39.8042 54.9668 38.9106C54.2018 38.5145 54.1541 38.3716 54.1541 36.4769C54.1541 30.1855 51.8016 24.8072 47.9463 22.2842C47.5726 22.0396 47.0926 21.6729 46.8799 21.4689C46.6672 21.2653 46.2835 21.0983 46.0272 21.0983C45.6405 21.0983 45.5617 20.6708 45.5617 18.5686C45.5617 14.2765 45.05 13.983 37.5717 13.983C33.8121 13.983 31.6361 14.0918 31.6361 14.2795ZM42.8359 16.7106C43.4699 17.345 43.2939 19.9125 42.6163 19.9125C42.2999 19.9125 41.9588 19.779 41.8581 19.616C41.7503 19.4414 39.9844 19.3195 37.5619 19.3195C35.1395 19.3195 33.3736 19.4414 33.2657 19.616C32.376 21.0562 31.3991 18.4986 32.2391 16.9282C32.6136 16.2282 42.1577 16.0319 42.8359 16.7106ZM42.6729 22.4331C43.2841 22.5499 43.784 22.7645 43.784 22.9095C43.784 23.0548 44.0506 23.1736 44.3766 23.1736C44.7025 23.1736 44.9691 23.307 44.9691 23.4701C44.9691 23.6332 45.1715 23.7666 45.4192 23.7666C46.005 23.7666 49.7098 27.4737 49.7098 28.0598C49.7098 28.3076 49.8431 28.5101 50.0061 28.5101C50.169 28.5101 50.3023 28.7769 50.3023 29.1031C50.3023 29.4292 50.4357 29.696 50.5986 29.696C50.7616 29.696 50.8949 30.2296 50.8949 30.8819C50.8949 31.5341 51.0282 32.0678 51.1912 32.0678C51.3799 32.0678 51.4875 34.4994 51.4875 38.7701C51.4875 45.0372 51.4537 45.4585 50.969 45.2581C45.829 43.133 35.9033 42.5041 29.414 43.8925C24.9619 44.8448 24.8147 44.8839 24.6496 45.1507C24.0701 46.0891 23.9326 44.7455 23.9326 38.1454C23.9326 33.5006 24.0396 30.8819 24.2289 30.8819C24.3919 30.8819 24.5252 30.4816 24.5252 29.9925C24.5252 29.5033 24.6585 29.1031 24.8215 29.1031C24.9844 29.1031 25.1178 28.8656 25.1178 28.5756C25.1178 28.2854 25.3844 27.8558 25.7104 27.6207C26.0363 27.3856 26.3029 27.0183 26.3029 26.8042C26.3029 26.2638 28.257 24.3595 28.8116 24.3595C29.0614 24.3595 29.2658 24.2498 29.2658 24.1158C29.2658 23.7939 31.9635 22.5819 32.6939 22.5762C33.0082 22.5736 33.4657 22.4384 33.7102 22.2753C34.1895 21.9557 40.7832 22.0719 42.6729 22.4331ZM35.4879 26.5267C34.6168 26.9362 33.4139 28.0642 33.4139 28.4719C33.4139 28.6287 33.2708 28.8048 33.0956 28.8632C32.6622 29.0079 32.6509 33.0485 33.0838 33.1929C33.2654 33.2537 33.4139 33.4315 33.4139 33.5884C33.4139 34.0183 34.6894 35.2071 35.7258 35.7434C37.9364 36.8875 40.6652 35.7437 42.2285 33.018C42.6311 32.3159 42.7443 29.1031 42.3665 29.1031C42.2385 29.1031 41.8969 28.7013 41.6068 28.2101C40.5814 26.4734 37.4401 25.6091 35.4879 26.5267ZM38.4508 28.8066C38.4508 28.9696 38.5936 29.1031 38.7681 29.1031C39.8137 29.1031 40.2715 30.9984 39.5882 32.4985C39.0816 33.6115 36.6556 33.666 35.7193 32.5857C34.946 31.6936 35.0592 30.4437 36.0064 29.4102C36.7999 28.5448 38.4508 28.1369 38.4508 28.8066ZM21.266 47.7807C21.266 54.3031 21.266 54.3031 20.229 54.3031C19.1458 54.3031 18.5612 45.1131 19.5253 43.24C19.8474 42.6144 20.9724 41.2584 21.1694 41.2584C21.2225 41.2584 21.266 44.1934 21.266 47.7807ZM55.8578 43.6512C56.813 46.382 56.3173 54.3031 55.1911 54.3031C54.1541 54.3031 54.1541 54.3031 54.1541 47.7674C54.1541 40.8573 54.5476 39.9062 55.8578 43.6512ZM42.4507 45.881C43.5914 45.974 44.6515 46.1724 44.8062 46.3224C44.9611 46.4721 45.5943 46.5949 46.2136 46.5949C46.8328 46.5949 47.3394 46.7283 47.3394 46.8913C47.3394 47.0544 47.8728 47.1878 48.5246 47.1878C49.1764 47.1878 49.7098 47.3212 49.7098 47.4843C49.7098 47.6473 50.1098 47.7807 50.5986 47.7807C51.4875 47.7807 51.4875 47.7807 51.4875 52.2278C51.4875 54.9948 51.3755 56.6749 51.1912 56.6749C51.0282 56.6749 50.8949 56.8608 50.8949 57.0879C50.8949 58.0668 25.5429 58.3375 24.4745 57.3701C23.3842 56.3829 23.6953 47.7807 24.8215 47.7807C25.3104 47.7807 25.7104 47.6619 25.7104 47.5166C25.7104 47.2572 26.7008 47.0247 29.1917 46.6995C29.8845 46.6091 30.451 46.4152 30.451 46.2684C30.451 46.122 31.4175 45.9998 32.5991 45.9975C33.7807 45.9948 34.9472 45.8563 35.1916 45.6894C35.612 45.4027 37.0378 45.4404 42.4507 45.881Z" fill="white"/>
</svg>
