<svg width="25" height="25" viewBox="0 0 25 25" fill="none" xmlns="http://www.w3.org/2000/svg">
<g clip-path="url(#clip0_40_727)">
<path d="M12.5 3.125C7.32422 3.125 3.125 7.32422 3.125 12.5C3.125 17.6758 7.32422 21.875 12.5 21.875C13.3643 21.875 14.0625 22.5732 14.0625 23.4375C14.0625 24.3018 13.3643 25 12.5 25C5.5957 25 0 19.4043 0 12.5C0 5.5957 5.5957 0 12.5 0C19.4043 0 25 5.5957 25 12.5V14.0625C25 16.6504 22.9004 18.75 20.3125 18.75C18.8818 18.75 17.5977 18.1055 16.7383 17.0947C15.625 18.1201 14.1357 18.75 12.5 18.75C9.04785 18.75 6.25 15.9521 6.25 12.5C6.25 9.04785 9.04785 6.25 12.5 6.25C13.8623 6.25 15.1221 6.68457 16.1475 7.42676C16.4258 7.18262 16.7871 7.03125 17.1875 7.03125C18.0518 7.03125 18.75 7.72949 18.75 8.59375V12.5V14.0625C18.75 14.9268 19.4482 15.625 20.3125 15.625C21.1768 15.625 21.875 14.9268 21.875 14.0625V12.5C21.875 7.32422 17.6758 3.125 12.5 3.125ZM15.625 12.5C15.625 11.6712 15.2958 10.8763 14.7097 10.2903C14.1237 9.70424 13.3288 9.375 12.5 9.375C11.6712 9.375 10.8763 9.70424 10.2903 10.2903C9.70424 10.8763 9.375 11.6712 9.375 12.5C9.375 13.3288 9.70424 14.1237 10.2903 14.7097C10.8763 15.2958 11.6712 15.625 12.5 15.625C13.3288 15.625 14.1237 15.2958 14.7097 14.7097C15.2958 14.1237 15.625 13.3288 15.625 12.5Z" fill="#54194A"/>
</g>
<defs>
<clipPath id="clip0_40_727">
<rect width="25" height="25" fill="white"/>
</clipPath>
</defs>
</svg>
