<svg width="21" height="21" viewBox="0 0 21 21" fill="none" xmlns="http://www.w3.org/2000/svg">
<path d="M20.2262 3.55957C21.04 2.74577 21.04 1.42415 20.2262 0.610352C19.4124 -0.203451 18.0908 -0.203451 17.277 0.610352L10.4216 7.47233L3.55957 0.616862C2.74577 -0.19694 1.42415 -0.19694 0.610352 0.616862C-0.203451 1.43066 -0.203451 2.75228 0.610352 3.56608L7.47233 10.4215L0.616862 17.2835C-0.19694 18.0973 -0.19694 19.4189 0.616862 20.2327C1.43066 21.0466 2.75228 21.0466 3.56608 20.2327L10.4216 13.3708L17.2835 20.2262C18.0973 21.04 19.4189 21.04 20.2328 20.2262C21.0466 19.4124 21.0466 18.0908 20.2328 17.277L13.3708 10.4215L20.2262 3.55957Z" fill="#C84754"/>
</svg>
